<svg xmlns="http://www.w3.org/2000/svg" xmlns:xlink="http://www.w3.org/1999/xlink" width="16" height="16" viewBox="0 0 16 16">
  <defs>
    <style>
      .cls-1, .cls-3 {
        fill: #707070;
      }

      .cls-1 {
        stroke: #707070;
      }

      .cls-2 {
        clip-path: url(#clip-path);
      }
    </style>
    <clipPath id="clip-path">
      <rect id="Rectangle_198" data-name="Rectangle 198" class="cls-1" width="16" height="16" transform="translate(103 418)"/>
    </clipPath>
  </defs>
  <g id="Mask_Group_22" data-name="Mask Group 22" class="cls-2" transform="translate(-103 -418)">
    <g id="loop" transform="translate(103 418)">
      <g id="Group_600" data-name="Group 600">
        <g id="Group_599" data-name="Group 599">
          <path id="Path_387" data-name="Path 387" class="cls-3" d="M14.981,8.006H16A7.132,7.132,0,0,0,1.753,7.5L.721,6.47,0,7.19,2.192,9.382,4.384,7.19l-.723-.72-.877.877a6.117,6.117,0,0,1,12.2.659Z"/>
          <path id="Path_388" data-name="Path 388" class="cls-3" d="M7.083,14.918a7.274,7.274,0,0,0,1.08.191l.1-1.015a6.165,6.165,0,0,1-.926-.164Z"/>
          <path id="Path_389" data-name="Path 389" class="cls-3" d="M3.225,10.358l-.941.392a7.193,7.193,0,0,0,.5.976l.87-.532A6.2,6.2,0,0,1,3.225,10.358Z"/>
          <path id="Path_390" data-name="Path 390" class="cls-3" d="M5.074,14.051a7.132,7.132,0,0,0,.968.51l.4-.936a6.1,6.1,0,0,1-.831-.438Z"/>
          <path id="Path_391" data-name="Path 391" class="cls-3" d="M4.2,11.958l-.778.659a7.171,7.171,0,0,0,.77.78l.669-.77A6.112,6.112,0,0,1,4.2,11.958Z"/>
          <path id="Path_392" data-name="Path 392" class="cls-3" d="M12.663,12.8l.636.795a7.125,7.125,0,0,0,.8-.747l-.751-.691A6.2,6.2,0,0,1,12.663,12.8Z"/>
          <path id="Path_393" data-name="Path 393" class="cls-3" d="M9.2,14.114l.056,1.019a7.13,7.13,0,0,0,1.088-.144l-.212-1A6.119,6.119,0,0,1,9.2,14.114Z"/>
          <path id="Path_394" data-name="Path 394" class="cls-3" d="M13.934,11.416l.846.569a7.16,7.16,0,0,0,.54-.954L14.4,10.6A6.1,6.1,0,0,1,13.934,11.416Z"/>
          <path id="Path_395" data-name="Path 395" class="cls-3" d="M11.036,13.725l.363.953a7.109,7.109,0,0,0,.991-.469l-.506-.885A6.146,6.146,0,0,1,11.036,13.725Z"/>
        </g>
      </g>
    </g>
  </g>
</svg>
