<svg xmlns="http://www.w3.org/2000/svg" xmlns:xlink="http://www.w3.org/1999/xlink" width="16" height="16" viewBox="0 0 16 16">
  <defs>
    <style>
      .cls-1, .cls-3 {
        fill: #707070;
      }

      .cls-1 {
        stroke: #707070;
      }

      .cls-2 {
        clip-path: url(#clip-path);
      }
    </style>
    <clipPath id="clip-path">
      <rect id="Rectangle_198" data-name="Rectangle 198" class="cls-1" width="16" height="16" transform="translate(103 454)"/>
    </clipPath>
  </defs>
  <g id="Mask_Group_23" data-name="Mask Group 23" class="cls-2" transform="translate(-103 -454)">
    <g id="chat" transform="translate(103 454)">
      <g id="Group_602" data-name="Group 602">
        <g id="Group_601" data-name="Group 601">
          <path id="Path_396" data-name="Path 396" class="cls-3" d="M11,0H2A2,2,0,0,0,0,2V12a.5.5,0,0,0,.288.453A.507.507,0,0,0,.5,12.5a.5.5,0,0,0,.32-.116L3.681,10H11a2,2,0,0,0,2-2V2A2,2,0,0,0,11,0Zm1,8a1,1,0,0,1-1,1H3.5a.5.5,0,0,0-.32.116L1,10.933V2A1,1,0,0,1,2,1h9a1,1,0,0,1,1,1Z"/>
        </g>
      </g>
      <g id="Group_604" data-name="Group 604">
        <g id="Group_603" data-name="Group 603">
          <path id="Path_397" data-name="Path 397" class="cls-3" d="M14,4a.5.5,0,0,0,0,1,1,1,0,0,1,1,1v8.459l-1.688-1.35A.5.5,0,0,0,13,13H6a1,1,0,0,1-1-1v-.5a.5.5,0,0,0-1,0V12a2,2,0,0,0,2,2h6.824l2.363,1.891A.5.5,0,0,0,16,15.5V6A2,2,0,0,0,14,4Z"/>
        </g>
      </g>
    </g>
  </g>
</svg>
