<svg xmlns="http://www.w3.org/2000/svg" width="154.526" height="198.896" viewBox="0 0 154.526 198.896">
  <g id="Component_2_1" data-name="Component 2 – 1" transform="translate(0 0)">
    <g id="Group_5417" data-name="Group 5417" transform="translate(105.42 45.014)">
      <g id="Group_5398" data-name="Group 5398" transform="translate(1.078 0)">
        <g id="Group_5397" data-name="Group 5397">
          <path id="Path_4154" data-name="Path 4154" d="M150.657,80c-12.217,30.185-21.018,54.984-19.691,55.522s12.283-23.383,24.531-53.562Z" transform="translate(-130.833 -80.003)" fill="#b59d72"/>
        </g>
      </g>
      <g id="Group_5400" data-name="Group 5400" transform="translate(0 0.489)">
        <g id="Group_5399" data-name="Group 5399">
          <path id="Path_4155" data-name="Path 4155" d="M152.067,80.4l-22.109,54.538.006.006c1.325.539,12.282-23.383,24.53-53.562Z" transform="translate(-129.958 -80.4)" fill="#ccb68f"/>
        </g>
      </g>
    </g>
    <g id="Group_5503" data-name="Group 5503">
      <g id="Group_5419" data-name="Group 5419" transform="translate(12.765 17.501)">
        <g id="Group_5418" data-name="Group 5418">
          <path id="Path_4170" data-name="Path 4170" d="M74.883,76.681A122.623,122.623,0,0,0,94.762,91.929,122.6,122.6,0,0,0,78.451,72.911,122.394,122.394,0,0,0,58.572,57.665,122.591,122.591,0,0,0,74.883,76.681Z" transform="translate(-53.841 -57.665)" fill="#8dc375"/>
          <path id="Path_4171" data-name="Path 4171" d="M73.5,78.6A122.688,122.688,0,0,0,95.285,90.969a122.478,122.478,0,0,0-18.769-16.6A122.507,122.507,0,0,0,54.731,62,122.608,122.608,0,0,0,73.5,78.6Z" transform="translate(-54.731 -56.661)" fill="#64b044"/>
          <path id="Path_4172" data-name="Path 4172" d="M79.441,76.842A89.555,89.555,0,0,0,90.563,91.4,89.575,89.575,0,0,0,82.68,74.864,89.564,89.564,0,0,0,71.557,60.308,89.7,89.7,0,0,0,79.441,76.842Z" transform="translate(-50.833 -57.053)" fill="#64b044"/>
        </g>
        <path id="Path_4173" data-name="Path 4173" d="M93.322,95.56c9.531,9.021,18.365,15.157,19.738,13.708s-5.238-9.94-14.766-18.96S84.834,79.8,83.459,81.242,83.793,86.539,93.322,95.56Z" transform="translate(-48.172 -52.314)" fill="#f7971e"/>
        <path id="Path_4174" data-name="Path 4174" d="M88.331,89.672a.661.661,0,0,0,.934-.026l1.525-1.611a.661.661,0,0,0-.023-.935h0a.663.663,0,0,0-.936.026L88.3,88.737a.659.659,0,0,0,.027.935Z" transform="translate(-46.995 -50.888)" fill="#e8721b"/>
        <path id="Path_4175" data-name="Path 4175" d="M94.644,92.214a.658.658,0,0,0,.932-.025L97.1,90.576a.663.663,0,0,0-.026-.935h0a.664.664,0,0,0-.936.026l-1.525,1.61a.663.663,0,0,0,.027.937Z" transform="translate(-45.532 -50.299)" fill="#e8721b"/>
        <path id="Path_4176" data-name="Path 4176" d="M97.13,98.005a.659.659,0,0,0,.934-.028l1.526-1.61a.663.663,0,0,0-.025-.936h0a.663.663,0,0,0-.935.026L97.1,97.067a.665.665,0,0,0,.026.939Z" transform="translate(-44.956 -48.958)" fill="#e8721b"/>
        <path id="Path_4177" data-name="Path 4177" d="M102.706,101.3a.66.66,0,0,0,.935-.023l1.526-1.612a.664.664,0,0,0-.026-.936h0a.665.665,0,0,0-.937.027l-1.524,1.611a.66.66,0,0,0,.026.934Z" transform="translate(-43.665 -48.193)" fill="#e8721b"/>
      </g>
      <g id="Group_5420" data-name="Group 5420" transform="translate(66.247 107.435)">
        <path id="Path_4178" data-name="Path 4178" d="M100.714,136.31c2.3-2.173,7.741-.144,12.163,4.529s6.153,10.217,3.863,12.392-7.739.142-12.164-4.529S98.424,138.481,100.714,136.31Z" transform="translate(-97.795 -129.582)" fill="#5f9653"/>
        <path id="Path_4179" data-name="Path 4179" d="M113.767,166.268c-4.533.3-8.728-7.427-9.368-17.252s2.51-18.028,7.041-18.325,8.723,7.427,9.366,17.252S118.294,165.974,113.767,166.268Z" transform="translate(-96.726 -130.683)" fill="#64a74a"/>
        <path id="Path_4180" data-name="Path 4180" d="M113.36,162.055c-3.1-3.316.213-11.457,7.4-18.184s15.533-9.49,18.635-6.172-.211,11.453-7.4,18.182S116.461,165.371,113.36,162.055Z" transform="translate(-94.9 -129.383)" fill="#64a74a"/>
        <path id="Path_4181" data-name="Path 4181" d="M135.015,156.754c-3.031,10.469-11.572,17.193-19.081,15.021s-11.139-12.421-8.109-22.891,11.573-17.193,19.081-15.02S138.045,146.285,135.015,156.754Z" transform="translate(-96.16 -130.041)" fill="#5f9653"/>
        <path id="Path_4182" data-name="Path 4182" d="M120.36,169.329c-4.016,2.684-11.713-1.772-17.184-9.952s-6.656-17-2.641-19.685,11.708,1.769,17.186,9.954S124.374,166.643,120.36,169.329Z" transform="translate(-98.154 -128.777)" fill="#8dc375"/>
        <path id="Path_4183" data-name="Path 4183" d="M142.013,147.4c2.686,4.016-1.771,11.708-9.953,17.182s-17,6.657-19.682,2.641,1.769-11.707,9.953-17.186S139.327,143.386,142.013,147.4Z" transform="translate(-95.039 -127.362)" fill="#64b044"/>
      </g>
      <g id="Group_5423" data-name="Group 5423" transform="translate(26.405 59.807)">
        <g id="Group_5421" data-name="Group 5421">
          <path id="Path_4184" data-name="Path 4184" d="M82.615,103.359a13.226,13.226,0,0,0,4.757,1.783A12.736,12.736,0,0,0,84.11,101.2a6.12,6.12,0,0,0,3.665-1.419,13.356,13.356,0,0,0-4.848-1.647,5.971,5.971,0,0,0,.429-3.791,6.266,6.266,0,0,0-3.592,1.61,13,13,0,0,0-3.058-3.939,5.829,5.829,0,0,0-.234,3.924,13.146,13.146,0,0,0-4.754-1.781,12.706,12.706,0,0,0,3.264,3.94,6.113,6.113,0,0,0-3.668,1.419,13.315,13.315,0,0,0,4.85,1.646,5.96,5.96,0,0,0-.432,3.792,6.236,6.236,0,0,0,3.589-1.611,12.949,12.949,0,0,0,3.064,3.938A5.829,5.829,0,0,0,82.615,103.359Z" transform="translate(-64.529 -92.014)" fill="#8dc375"/>
          <path id="Path_4185" data-name="Path 4185" d="M83.463,111c-2.908,4.228-10.632,8.2-14.819,5.326s-3.253-11.514-.347-15.741A9.2,9.2,0,1,1,83.463,111Z" transform="translate(-65.805 -90.968)" fill="#f5815a"/>
        </g>
        <g id="Group_5422" data-name="Group 5422" transform="translate(3.352 7.172)">
          <path id="Path_4186" data-name="Path 4186" d="M75.159,99.9a1.071,1.071,0,1,1,.576-1.4A1.072,1.072,0,0,1,75.159,99.9Z" transform="translate(-67.334 -97.837)" fill="#f9b39a"/>
          <path id="Path_4187" data-name="Path 4187" d="M78.772,106.037a1.369,1.369,0,1,1,.737-1.791A1.371,1.371,0,0,1,78.772,106.037Z" transform="translate(-66.593 -96.547)" fill="#f9b39a"/>
          <path id="Path_4188" data-name="Path 4188" d="M73.81,107.64a1.429,1.429,0,1,1,.772-1.868A1.428,1.428,0,0,1,73.81,107.64Z" transform="translate(-67.761 -96.202)" fill="#f9b39a"/>
          <path id="Path_4189" data-name="Path 4189" d="M70,103.61a.93.93,0,1,1,.5-1.216A.928.928,0,0,1,70,103.61Z" transform="translate(-68.483 -96.914)" fill="#f9b39a"/>
          <path id="Path_4190" data-name="Path 4190" d="M70.413,111.418a1.362,1.362,0,1,1,.733-1.78A1.362,1.362,0,0,1,70.413,111.418Z" transform="translate(-68.527 -95.298)" fill="#f9b39a"/>
        </g>
      </g>
      <g id="Group_5426" data-name="Group 5426" transform="translate(7.73 83.985)">
        <g id="Group_5424" data-name="Group 5424">
          <path id="Path_4191" data-name="Path 4191" d="M63.387,117.783a13.233,13.233,0,0,0,3.472-3.71,12.726,12.726,0,0,0-4.891,1.5,6.123,6.123,0,0,0,.1-3.929,13.322,13.322,0,0,0-3.381,3.843,5.974,5.974,0,0,0-3.337-1.851,6.263,6.263,0,0,0,.108,3.936,12.976,12.976,0,0,0-4.812,1.311,5.832,5.832,0,0,0,3.534,1.722,13.174,13.174,0,0,0-3.47,3.709,12.776,12.776,0,0,0,4.892-1.5,6.124,6.124,0,0,0-.1,3.933,13.334,13.334,0,0,0,3.383-3.847,5.946,5.946,0,0,0,3.334,1.852,6.234,6.234,0,0,0-.11-3.931,12.9,12.9,0,0,0,4.812-1.318A5.827,5.827,0,0,0,63.387,117.783Z" transform="translate(-50.643 -111.644)" fill="#5f9653"/>
          <path id="Path_4192" data-name="Path 4192" d="M70.56,120.459c2.79,4.306,3.494,12.966-.769,15.728s-11.883-1.416-14.672-5.722a9.2,9.2,0,1,1,15.44-10.006Z" transform="translate(-49.955 -110.59)" fill="#f15723"/>
        </g>
        <g id="Group_5425" data-name="Group 5425" transform="translate(5.999 9.17)">
          <path id="Path_4193" data-name="Path 4193" d="M57.655,121.349a1.07,1.07,0,1,1-1.072-1.069A1.072,1.072,0,0,1,57.655,121.349Z" transform="translate(-55.514 -118.813)" fill="#f5815a"/>
          <path id="Path_4194" data-name="Path 4194" d="M64.7,120.457a1.369,1.369,0,1,1-1.371-1.368A1.369,1.369,0,0,1,64.7,120.457Z" transform="translate(-54.021 -119.089)" fill="#f5815a"/>
          <path id="Path_4195" data-name="Path 4195" d="M64.269,125.671a1.429,1.429,0,1,1-1.431-1.43A1.431,1.431,0,0,1,64.269,125.671Z" transform="translate(-54.148 -117.895)" fill="#f5815a"/>
          <path id="Path_4196" data-name="Path 4196" d="M59.114,127.494a.931.931,0,1,1-.932-.931A.93.93,0,0,1,59.114,127.494Z" transform="translate(-55.111 -117.357)" fill="#f5815a"/>
          <path id="Path_4197" data-name="Path 4197" d="M66.455,130.238a1.362,1.362,0,1,1-1.362-1.36A1.363,1.363,0,0,1,66.455,130.238Z" transform="translate(-53.61 -116.821)" fill="#f5815a"/>
        </g>
      </g>
      <g id="Group_5429" data-name="Group 5429" transform="translate(35.626 112.395)">
        <g id="Group_5427" data-name="Group 5427">
          <path id="Path_4198" data-name="Path 4198" d="M91.382,148.845a13.226,13.226,0,0,0,2.33,4.514,12.73,12.73,0,0,0,.227-5.111,6.107,6.107,0,0,0,3.669,1.408,13.339,13.339,0,0,0-2.489-4.475,5.973,5.973,0,0,0,2.864-2.521,6.272,6.272,0,0,0-3.746-1.218,12.993,12.993,0,0,0,.377-4.973,5.828,5.828,0,0,0-2.806,2.755,13.154,13.154,0,0,0-2.332-4.513,12.734,12.734,0,0,0-.223,5.114,6.107,6.107,0,0,0-3.672-1.41,13.353,13.353,0,0,0,2.49,4.477,5.947,5.947,0,0,0-2.864,2.52,6.254,6.254,0,0,0,3.742,1.212,12.99,12.99,0,0,0-.371,4.975A5.814,5.814,0,0,0,91.382,148.845Z" transform="translate(-70.531 -134.71)" fill="#5f9653"/>
          <path id="Path_4199" data-name="Path 4199" d="M87.994,154.6c-4.993,1.184-13.388-1.051-14.563-5.995s5.316-10.72,10.307-11.905a9.2,9.2,0,1,1,4.257,17.9Z" transform="translate(-73.292 -134.308)" fill="#f15723"/>
        </g>
        <g id="Group_5428" data-name="Group 5428" transform="translate(2.402 5.331)">
          <path id="Path_4200" data-name="Path 4200" d="M87.348,141.54a1.07,1.07,0,1,1,1.366-.652A1.072,1.072,0,0,1,87.348,141.54Z" transform="translate(-72.603 -138.941)" fill="#f5815a"/>
          <path id="Path_4201" data-name="Path 4201" d="M85.957,148.5a1.369,1.369,0,1,1,1.749-.831A1.368,1.368,0,0,1,85.957,148.5Z" transform="translate(-72.971 -137.464)" fill="#f5815a"/>
          <path id="Path_4202" data-name="Path 4202" d="M81.214,146.35a1.428,1.428,0,1,1,1.828-.867A1.426,1.426,0,0,1,81.214,146.35Z" transform="translate(-74.08 -137.988)" fill="#f5815a"/>
          <path id="Path_4203" data-name="Path 4203" d="M81.01,140.847a.931.931,0,1,1,1.189-.567A.93.93,0,0,1,81.01,140.847Z" transform="translate(-74.05 -139.039)" fill="#f5815a"/>
          <path id="Path_4204" data-name="Path 4204" d="M76.147,146.878a1.364,1.364,0,1,1,1.74-.828A1.362,1.362,0,0,1,76.147,146.878Z" transform="translate(-75.243 -137.836)" fill="#f5815a"/>
        </g>
      </g>
      <path id="Path_4205" data-name="Path 4205" d="M116.49,107.156a5.452,5.452,0,0,1-.7,7.678L73.51,150.022a5.454,5.454,0,0,1-7.681-.7h0a5.455,5.455,0,0,1,.7-7.682l42.276-35.185a5.455,5.455,0,0,1,7.681.7Z" transform="translate(-39.687 -29.154)" fill="#5f9653"/>
      <g id="Group_5430" data-name="Group 5430" transform="translate(81.336 71.667)">
        <path id="Path_4206" data-name="Path 4206" d="M124.126,103.63a8.606,8.606,0,0,1,12.116,1.116l8.59,10.334a8.6,8.6,0,0,1-1.115,12.115l-14.286,8.147a8.6,8.6,0,0,1-12.113-1.116l-4.924-5.921a8.6,8.6,0,0,1,1.113-12.116Z" transform="translate(-110.404 -101.643)" fill="#e3483f"/>
        <path id="Path_4207" data-name="Path 4207" d="M129.085,107.771a1.751,1.751,0,0,1,2.477-.067h0a1.75,1.75,0,0,1,.07,2.474l-14.369,15.184a1.75,1.75,0,0,1-2.478.067h0a1.748,1.748,0,0,1-.068-2.476Z" transform="translate(-109.516 -100.35)" fill="#f5815a"/>
        <path id="Path_4208" data-name="Path 4208" d="M130.278,103.307a2.6,2.6,0,0,1,3.661.339l7.728,9.3a2.6,2.6,0,0,1-.336,3.659h0a2.6,2.6,0,0,1-3.659-.337l-7.73-9.3a2.6,2.6,0,0,1,.337-3.661Z" transform="translate(-106.017 -101.396)" fill="#5f9653"/>
        <path id="Path_4209" data-name="Path 4209" d="M140.437,103.164a1.465,1.465,0,0,1,2.058.191h0a1.461,1.461,0,0,1-.188,2.057l-5.343,4.444a1.46,1.46,0,0,1-2.056-.191h0a1.457,1.457,0,0,1,.186-2.057Z" transform="translate(-104.806 -101.368)" fill="#5f9653"/>
      </g>
      <g id="Group_5431" data-name="Group 5431" transform="translate(52.041 66.062)">
        <path id="Path_4210" data-name="Path 4210" d="M87.035,118.086a8.6,8.6,0,0,1,5.559-10.82l12.793-4.109a8.6,8.6,0,0,1,10.821,5.559l2.222,16.3a8.6,8.6,0,0,1-5.557,10.821l-7.333,2.356a8.6,8.6,0,0,1-10.821-5.559Z" transform="translate(-86.619 -95.783)" fill="#fbcb43"/>
        <path id="Path_4211" data-name="Path 4211" d="M92.851,112.912a1.751,1.751,0,0,1,.861-2.322h0a1.756,1.756,0,0,1,2.327.86l8.714,19a1.752,1.752,0,0,1-.861,2.324h0a1.753,1.753,0,0,1-2.324-.862Z" transform="translate(-85.213 -94.002)" fill="#ffe167"/>
        <path id="Path_4212" data-name="Path 4212" d="M90.118,108.575a2.6,2.6,0,0,1,1.681-3.269l11.509-3.7a2.6,2.6,0,0,1,3.269,1.678h0a2.6,2.6,0,0,1-1.679,3.271l-11.511,3.7a2.6,2.6,0,0,1-3.269-1.678Z" transform="translate(-85.838 -96.075)" fill="#5f9653"/>
        <path id="Path_4213" data-name="Path 4213" d="M93.469,99a1.464,1.464,0,0,1,.943-1.84h0a1.464,1.464,0,0,1,1.84.945l2.125,6.617a1.461,1.461,0,0,1-.943,1.836h0a1.461,1.461,0,0,1-1.839-.942Z" transform="translate(-85.049 -97.092)" fill="#5f9653"/>
      </g>
      <g id="Group_5432" data-name="Group 5432" transform="translate(0 37.092)">
        <path id="Path_4214" data-name="Path 4214" d="M85.34,131.288a2.758,2.758,0,0,0-1.652-2.079,5.643,5.643,0,0,0-.669-.271,36.1,36.1,0,0,1-17.592-15.012c-8.113-13.106-7.484-28.506.909-36.391l1.818-1.125A1.535,1.535,0,0,0,66.54,73.8l-5.086,3.147a1.542,1.542,0,0,0-.3.283,18.534,18.534,0,0,0-7.2,2.534c-11.079,6.858-12.814,24.165-3.834,38.671,7.529,12.165,20.206,18.5,30.646,16.14a.28.28,0,0,0,.172-.017,6.245,6.245,0,0,0,2.557-.8A2.955,2.955,0,0,0,85.34,131.288Z" transform="translate(-44.367 -73.571)" fill="#edc03f"/>
        <path id="Path_4215" data-name="Path 4215" d="M59.7,78.486s-20.781,29.946,19.862,51.087c0,0-14.3-3.087-23.445-12.989C47.864,107.64,44.26,89,59.7,78.486Z" transform="translate(-43.288 -72.433)" fill="#ebac00"/>
        <path id="Path_4216" data-name="Path 4216" d="M77.2,122.564c-.62.1-1.251-.622-1.4-1.6s.232-1.856.85-1.953,1.253.622,1.4,1.6S77.82,122.47,77.2,122.564Z" transform="translate(-37.093 -63.047)" fill="#79544e"/>
      </g>
      <g id="Group_5436" data-name="Group 5436" transform="translate(25.589 25.148)">
        <g id="Group_5433" data-name="Group 5433" transform="translate(0 14.588)">
          <path id="Path_4217" data-name="Path 4217" d="M73.129,102.9c4.659,3.175,9.426,4.38,13.309,2.344.773-.41,1.063-1.238,1.765-1.7a5.331,5.331,0,0,1,1.478-.24,1.939,1.939,0,0,0,.717-.219c3.806-2.466,5.567-7.146,5.173-13.058C95,81.754,90.044,75.361,84.5,75.734a11.761,11.761,0,0,0-2.171.325,8.357,8.357,0,0,0-2.3.982,18.544,18.544,0,0,0-4.285,3.938c-.053.065-.113.134-.168.2-4.413.467-7.231,2.072-9.2,4.954C63.251,90.727,66.275,98.23,73.129,102.9Z" transform="translate(-65.143 -75.718)" fill="#e3483f"/>
        </g>
        <g id="Group_5434" data-name="Group 5434" transform="translate(3.952 13.77)">
          <path id="Path_4218" data-name="Path 4218" d="M75.242,82.737a.97.97,0,0,0,.488-.793,7.6,7.6,0,0,0-1.814-5.191,5.973,5.973,0,0,0-4.609-1.7A.974.974,0,0,0,69.345,77a4.109,4.109,0,0,1,3.17,1.1,5.751,5.751,0,0,1,1.271,3.737.973.973,0,0,0,.921,1.022A.963.963,0,0,0,75.242,82.737Z" transform="translate(-68.352 -75.054)" fill="#79544e"/>
        </g>
        <g id="Group_5435" data-name="Group 5435" transform="translate(3.479 25.69)">
          <path id="Path_4219" data-name="Path 4219" d="M68.187,87.992c-.562,2.109-.01,4.085,1.23,4.417s2.707-1.107,3.27-3.213.012-4.084-1.23-4.416S68.751,85.886,68.187,87.992Z" transform="translate(-67.968 -84.732)" fill="#fff"/>
        </g>
        <path id="Path_4220" data-name="Path 4220" d="M68.445,79.014a15.272,15.272,0,0,0,7.261-5.906,15.266,15.266,0,0,0,1.543-9.234,15.27,15.27,0,0,0-7.263,5.907A15.261,15.261,0,0,0,68.445,79.014Z" transform="translate(-64.415 -63.874)" fill="#6b7f28"/>
      </g>
      <g id="Group_5437" data-name="Group 5437" transform="translate(28.862 110.504)">
        <path id="Path_4221" data-name="Path 4221" d="M128.131,148.98a2.761,2.761,0,0,0-2.637.312,5.627,5.627,0,0,0-.581.426,36.1,36.1,0,0,1-22.023,7.055c-15.414,0-28.177-8.639-30.465-19.927V134.71a1.534,1.534,0,1,0-3.068,0v5.979a1.507,1.507,0,0,0,.081.406,18.538,18.538,0,0,0-1.637,7.459c0,13.027,13.8,23.614,30.863,23.614,14.307,0,26.365-7.444,29.854-17.565a.282.282,0,0,0,.078-.155,6.258,6.258,0,0,0,.66-2.6A2.959,2.959,0,0,0,128.131,148.98Z" transform="translate(-67.8 -133.175)" fill="#fbcb43"/>
        <path id="Path_4222" data-name="Path 4222" d="M70.622,140.884s14.525,33.43,53.894,10c0,0-10.153,10.534-23.385,13.1C89.181,166.3,71.435,159.548,70.622,140.884Z" transform="translate(-67.146 -131.389)" fill="#f5b400"/>
        <path id="Path_4223" data-name="Path 4223" d="M118.291,147.746c-.244.578-1.187.734-2.1.351s-1.457-1.176-1.214-1.753,1.189-.737,2.1-.349S118.537,147.166,118.291,147.746Z" transform="translate(-56.884 -130.254)" fill="#79544e"/>
      </g>
      <g id="Group_5438" data-name="Group 5438" transform="translate(60.192 22.054)">
        <path id="Path_4224" data-name="Path 4224" d="M127.055,83.293a1.765,1.765,0,0,1,.7,2.4l-2.054,3.75a1.766,1.766,0,0,1-2.4.7l-20.68-11.331a1.769,1.769,0,0,1-.7-2.4l2.054-3.748a1.771,1.771,0,0,1,2.4-.7Z" transform="translate(-91.276 -58.957)" fill="#badbac"/>
        <path id="Path_4225" data-name="Path 4225" d="M110.366,74.7a9.7,9.7,0,1,1-13.171,3.845A9.7,9.7,0,0,1,110.366,74.7Z" transform="translate(-92.597 -58.549)" fill="#5f9653"/>
        <path id="Path_4226" data-name="Path 4226" d="M103.238,69.808a6.755,6.755,0,1,1-9.169,2.678A6.756,6.756,0,0,1,103.238,69.808Z" transform="translate(-93.237 -59.598)" fill="#5f9653"/>
        <path id="Path_4227" data-name="Path 4227" d="M115.934,62.792a11.6,11.6,0,1,1-15.753,4.6A11.6,11.6,0,0,1,115.934,62.792Z" transform="translate(-91.959 -61.362)" fill="#5f9653"/>
        <path id="Path_4228" data-name="Path 4228" d="M106.559,80.681a4.1,4.1,0,1,1-5.568,1.627A4.1,4.1,0,0,1,106.559,80.681Z" transform="translate(-91.557 -57.003)" fill="#64b044"/>
        <path id="Path_4229" data-name="Path 4229" d="M108.518,65.566a4.044,4.044,0,1,1-5.49,1.6A4.047,4.047,0,0,1,108.518,65.566Z" transform="translate(-91.084 -60.503)" fill="#64b044"/>
        <path id="Path_4230" data-name="Path 4230" d="M101.672,73.107a2.74,2.74,0,1,1-3.718,1.086A2.74,2.74,0,0,1,101.672,73.107Z" transform="translate(-92.222 -58.719)" fill="#64b044"/>
        <path id="Path_4231" data-name="Path 4231" d="M111.037,72.885a1.965,1.965,0,1,1-2.667.777A1.964,1.964,0,0,1,111.037,72.885Z" transform="translate(-89.787 -58.749)" fill="#64b044"/>
      </g>
      <g id="Group_5495" data-name="Group 5495" transform="translate(9.882 60.756)">
        <g id="Group_5450" data-name="Group 5450" transform="translate(19.356 118.385)">
          <g id="Group_5441" data-name="Group 5441" transform="translate(0 3.604)">
            <g id="Group_5440" data-name="Group 5440">
              <g id="Group_5439" data-name="Group 5439">
                <path id="Path_4232" data-name="Path 4232" d="M84.255,199.909a8.075,8.075,0,1,1-8.074-8.081A8.076,8.076,0,0,1,84.255,199.909Z" transform="translate(-68.105 -191.828)" fill="#657576"/>
              </g>
            </g>
          </g>
          <g id="Group_5444" data-name="Group 5444" transform="translate(2.984 6.59)">
            <g id="Group_5443" data-name="Group 5443">
              <g id="Group_5442" data-name="Group 5442">
                <path id="Path_4233" data-name="Path 4233" d="M80.709,199.347a5.09,5.09,0,1,1-5.089-5.1A5.09,5.09,0,0,1,80.709,199.347Z" transform="translate(-70.528 -194.252)" fill="#b5c5c6"/>
              </g>
            </g>
          </g>
          <g id="Group_5446" data-name="Group 5446" transform="translate(4.368 7.494)">
            <g id="Group_5445" data-name="Group 5445">
              <path id="Path_4234" data-name="Path 4234" d="M79.063,198.7a3.706,3.706,0,1,1-3.7-3.712A3.705,3.705,0,0,1,79.063,198.7Z" transform="translate(-71.651 -194.986)" fill="#95a5a6"/>
            </g>
          </g>
          <g id="Group_5449" data-name="Group 5449" transform="translate(1.756)">
            <g id="Group_5448" data-name="Group 5448">
              <g id="Group_5447" data-name="Group 5447">
                <path id="Path_4235" data-name="Path 4235" d="M78.26,198.338a2.637,2.637,0,0,1-1.267,3.5h0a2.641,2.641,0,0,1-3.5-1.267l-3.711-7.921a2.63,2.63,0,0,1,1.267-3.5h0a2.628,2.628,0,0,1,3.5,1.265Z" transform="translate(-69.53 -188.902)" fill="#95a5a6"/>
              </g>
            </g>
          </g>
        </g>
        <g id="Group_5462" data-name="Group 5462" transform="translate(93.969 118.385)">
          <g id="Group_5453" data-name="Group 5453" transform="translate(0 3.604)">
            <g id="Group_5452" data-name="Group 5452">
              <g id="Group_5451" data-name="Group 5451">
                <path id="Path_4236" data-name="Path 4236" d="M144.834,199.909a8.075,8.075,0,1,1-8.075-8.081A8.076,8.076,0,0,1,144.834,199.909Z" transform="translate(-128.684 -191.828)" fill="#657576"/>
              </g>
            </g>
          </g>
          <g id="Group_5456" data-name="Group 5456" transform="translate(2.984 6.59)">
            <g id="Group_5455" data-name="Group 5455">
              <g id="Group_5454" data-name="Group 5454">
                <path id="Path_4237" data-name="Path 4237" d="M141.288,199.347a5.091,5.091,0,1,1-5.09-5.1A5.09,5.09,0,0,1,141.288,199.347Z" transform="translate(-131.107 -194.252)" fill="#b5c5c6"/>
              </g>
            </g>
          </g>
          <g id="Group_5458" data-name="Group 5458" transform="translate(4.369 7.494)">
            <g id="Group_5457" data-name="Group 5457">
              <path id="Path_4238" data-name="Path 4238" d="M139.642,198.7a3.705,3.705,0,1,1-3.7-3.712A3.706,3.706,0,0,1,139.642,198.7Z" transform="translate(-132.231 -194.986)" fill="#95a5a6"/>
            </g>
          </g>
          <g id="Group_5461" data-name="Group 5461" transform="translate(1.755)">
            <g id="Group_5460" data-name="Group 5460">
              <g id="Group_5459" data-name="Group 5459">
                <path id="Path_4239" data-name="Path 4239" d="M138.839,198.338a2.636,2.636,0,0,1-1.269,3.5h0a2.64,2.64,0,0,1-3.5-1.267l-3.712-7.921a2.629,2.629,0,0,1,1.269-3.5h0a2.628,2.628,0,0,1,3.5,1.265Z" transform="translate(-130.109 -188.902)" fill="#95a5a6"/>
              </g>
            </g>
          </g>
        </g>
        <g id="Group_5465" data-name="Group 5465" transform="translate(0 1.185)">
          <g id="Group_5464" data-name="Group 5464">
            <g id="Group_5463" data-name="Group 5463">
              <path id="Path_4240" data-name="Path 4240" d="M154.587,188.165H67.565a2.334,2.334,0,0,1-2.253-1.719L52.474,139.608a2.335,2.335,0,1,1,4.5-1.232L69.346,183.5H152.6l13.626-83.7a2.349,2.349,0,0,1,1.914-1.932l23.928-4.081a2.335,2.335,0,0,1,.785,4.6l-22.285,3.8L156.892,186.2A2.337,2.337,0,0,1,154.587,188.165Z" transform="translate(-52.39 -93.746)" fill="#95a5a6"/>
            </g>
          </g>
        </g>
        <g id="Group_5468" data-name="Group 5468" transform="translate(0 32.908)">
          <g id="Group_5467" data-name="Group 5467">
            <g id="Group_5466" data-name="Group 5466">
              <path id="Path_4241" data-name="Path 4241" d="M54.724,135.36a2.332,2.332,0,0,1-.234-4.653L163.8,119.523a2.332,2.332,0,1,1,.473,4.641L54.963,135.346A1.942,1.942,0,0,1,54.724,135.36Z" transform="translate(-52.39 -119.503)" fill="#95a5a6"/>
            </g>
          </g>
        </g>
        <g id="Group_5471" data-name="Group 5471" transform="translate(15.175 90.928)">
          <g id="Group_5470" data-name="Group 5470">
            <g id="Group_5469" data-name="Group 5469">
              <path id="Path_4242" data-name="Path 4242" d="M161.178,196.412H67.045a2.334,2.334,0,1,1,0-4.668h90.761l-8.26-21.973a2.335,2.335,0,0,1,4.372-1.639l9.446,25.125a2.337,2.337,0,0,1-2.186,3.156Z" transform="translate(-64.711 -166.609)" fill="#95a5a6"/>
            </g>
          </g>
        </g>
        <g id="Group_5474" data-name="Group 5474" transform="translate(4.642 51.939)">
          <g id="Group_5473" data-name="Group 5473">
            <g id="Group_5472" data-name="Group 5472">
              <path id="Path_4243" data-name="Path 4243" d="M58.563,147.469a2.333,2.333,0,0,1-.252-4.658l100.81-7.838a2.3,2.3,0,0,1,2.508,2.142,2.331,2.331,0,0,1-2.147,2.509L58.674,147.462A1.089,1.089,0,0,1,58.563,147.469Z" transform="translate(-56.159 -134.954)" fill="#95a5a6"/>
            </g>
          </g>
        </g>
        <g id="Group_5477" data-name="Group 5477" transform="translate(9.281 74.165)">
          <g id="Group_5476" data-name="Group 5476">
            <g id="Group_5475" data-name="Group 5475">
              <path id="Path_4244" data-name="Path 4244" d="M62.256,161.448a2.336,2.336,0,0,1-.091-4.67L155.475,153a2.336,2.336,0,1,1,.187,4.668l-93.31,3.778Z" transform="translate(-59.925 -152.999)" fill="#95a5a6"/>
            </g>
          </g>
        </g>
        <g id="Group_5480" data-name="Group 5480" transform="translate(15.323 42.883)">
          <g id="Group_5479" data-name="Group 5479">
            <g id="Group_5478" data-name="Group 5478">
              <path id="Path_4245" data-name="Path 4245" d="M76.959,180.321A2.312,2.312,0,0,1,74.7,178.47l-9.82-48.089a2.31,2.31,0,1,1,4.526-.921l9.821,48.089a2.31,2.31,0,0,1-2.266,2.772Z" transform="translate(-64.831 -127.602)" fill="#95a5a6"/>
            </g>
          </g>
        </g>
        <g id="Group_5483" data-name="Group 5483" transform="translate(33.253 40.666)">
          <g id="Group_5482" data-name="Group 5482">
            <g id="Group_5481" data-name="Group 5481">
              <path id="Path_4246" data-name="Path 4246" d="M89.485,180.738a2.336,2.336,0,0,1-2.306-1.981l-7.763-50.269a2.335,2.335,0,0,1,4.615-.711l7.762,50.269a2.333,2.333,0,0,1-1.951,2.662A2.086,2.086,0,0,1,89.485,180.738Z" transform="translate(-79.389 -125.801)" fill="#95a5a6"/>
            </g>
          </g>
        </g>
        <g id="Group_5486" data-name="Group 5486" transform="translate(52.485 38.825)">
          <g id="Group_5485" data-name="Group 5485">
            <g id="Group_5484" data-name="Group 5484">
              <path id="Path_4247" data-name="Path 4247" d="M100.632,181.085a2.333,2.333,0,0,1-2.327-2.189l-3.3-52.1a2.333,2.333,0,0,1,2.184-2.473,2.288,2.288,0,0,1,2.478,2.183l3.295,52.1a2.332,2.332,0,0,1-2.181,2.476C100.733,181.085,100.683,181.085,100.632,181.085Z" transform="translate(-95.003 -124.307)" fill="#95a5a6"/>
            </g>
          </g>
        </g>
        <g id="Group_5489" data-name="Group 5489" transform="translate(71.134 36.974)">
          <g id="Group_5488" data-name="Group 5488">
            <g id="Group_5487" data-name="Group 5487">
              <path id="Path_4248" data-name="Path 4248" d="M112.48,181.433a2.337,2.337,0,0,1-2.336-2.335v-53.96a2.335,2.335,0,0,1,4.669,0V179.1A2.334,2.334,0,0,1,112.48,181.433Z" transform="translate(-110.144 -122.804)" fill="#95a5a6"/>
            </g>
          </g>
        </g>
        <g id="Group_5492" data-name="Group 5492" transform="translate(85.015 34.727)">
          <g id="Group_5491" data-name="Group 5491">
            <g id="Group_5490" data-name="Group 5490">
              <path id="Path_4249" data-name="Path 4249" d="M123.753,181.855a2.28,2.28,0,0,1-.26-.015,2.33,2.33,0,0,1-2.064-2.573l6.232-56.21a2.365,2.365,0,0,1,2.578-2.067,2.338,2.338,0,0,1,2.067,2.58l-6.235,56.2A2.334,2.334,0,0,1,123.753,181.855Z" transform="translate(-121.414 -120.979)" fill="#95a5a6"/>
            </g>
          </g>
        </g>
        <g id="Group_5494" data-name="Group 5494" transform="translate(113.977)">
          <g id="Group_5493" data-name="Group 5493">
            <path id="Path_4250" data-name="Path 4250" d="M175.555,95.886a3.645,3.645,0,0,1-3.061,4.153l-23.375,3.53a3.639,3.639,0,0,1-4.148-3.059h0a3.644,3.644,0,0,1,3.059-4.153l23.372-3.53a3.643,3.643,0,0,1,4.152,3.059Z" transform="translate(-144.929 -92.784)" fill="#5f9653"/>
          </g>
        </g>
      </g>
      <g id="Group_5498" data-name="Group 5498" transform="translate(68.518 60.756)">
        <g id="Group_5496" data-name="Group 5496">
          <path id="Path_4251" data-name="Path 4251" d="M116.806,104.129a13.211,13.211,0,0,0,4.758,1.782,12.728,12.728,0,0,0-3.263-3.94,6.106,6.106,0,0,0,3.664-1.42,13.319,13.319,0,0,0-4.847-1.647,5.958,5.958,0,0,0,.429-3.79,6.256,6.256,0,0,0-3.592,1.61,13.01,13.01,0,0,0-3.059-3.94,5.84,5.84,0,0,0-.232,3.924,13.173,13.173,0,0,0-4.757-1.782,12.76,12.76,0,0,0,3.266,3.943,6.119,6.119,0,0,0-3.669,1.419,13.341,13.341,0,0,0,4.85,1.646,5.952,5.952,0,0,0-.432,3.79,6.236,6.236,0,0,0,3.59-1.61,12.94,12.94,0,0,0,3.062,3.938A5.823,5.823,0,0,0,116.806,104.129Z" transform="translate(-98.721 -92.784)" fill="#5f9653"/>
          <path id="Path_4252" data-name="Path 4252" d="M117.653,111.774c-2.906,4.227-10.629,8.2-14.818,5.327s-3.252-11.516-.347-15.744a9.2,9.2,0,1,1,15.166,10.417Z" transform="translate(-99.997 -91.738)" fill="#f15723"/>
        </g>
        <g id="Group_5497" data-name="Group 5497" transform="translate(3.352 7.172)">
          <path id="Path_4253" data-name="Path 4253" d="M109.349,100.666a1.07,1.07,0,1,1,.576-1.4A1.069,1.069,0,0,1,109.349,100.666Z" transform="translate(-101.526 -98.607)" fill="#f5815a"/>
          <path id="Path_4254" data-name="Path 4254" d="M112.962,106.809a1.37,1.37,0,1,1,.738-1.792A1.37,1.37,0,0,1,112.962,106.809Z" transform="translate(-100.785 -97.317)" fill="#f5815a"/>
          <path id="Path_4255" data-name="Path 4255" d="M108,108.411a1.428,1.428,0,1,1,.772-1.87A1.428,1.428,0,0,1,108,108.411Z" transform="translate(-101.953 -96.972)" fill="#f5815a"/>
          <path id="Path_4256" data-name="Path 4256" d="M104.2,104.381a.931.931,0,1,1,.5-1.217A.931.931,0,0,1,104.2,104.381Z" transform="translate(-102.675 -97.684)" fill="#f5815a"/>
          <path id="Path_4257" data-name="Path 4257" d="M104.6,112.189a1.363,1.363,0,1,1,.734-1.782A1.362,1.362,0,0,1,104.6,112.189Z" transform="translate(-102.719 -96.068)" fill="#f5815a"/>
        </g>
      </g>
      <g id="Group_5499" data-name="Group 5499" transform="translate(86.027 38.727)">
        <path id="Path_4258" data-name="Path 4258" d="M142.211,94.853c-2.344,6.322-10.366,9.176-17.92,6.376s-11.776-10.193-9.432-16.514,10.366-9.177,17.918-6.379S144.555,88.531,142.211,94.853Z" transform="translate(-114.213 -74.352)" fill="#e3483f"/>
        <path id="Path_4259" data-name="Path 4259" d="M132.249,83.064a6.76,6.76,0,0,0,3.471.022,6.7,6.7,0,0,0-2.582-2.4,6.761,6.761,0,0,0,2.469-2.44,6.725,6.725,0,0,0-3.526.128A6.716,6.716,0,0,0,132.1,74.9a6.728,6.728,0,0,0-2.4,2.585,6.728,6.728,0,0,0-2.439-2.472,6.714,6.714,0,0,0,.128,3.528,6.7,6.7,0,0,0-3.473-.023,6.726,6.726,0,0,0,2.585,2.4,6.713,6.713,0,0,0-2.471,2.44,6.72,6.72,0,0,0,3.525-.128,6.726,6.726,0,0,0-.021,3.472,6.742,6.742,0,0,0,2.4-2.583,6.729,6.729,0,0,0,2.439,2.47A6.719,6.719,0,0,0,132.249,83.064Z" transform="translate(-111.964 -74.899)" fill="#5f9653"/>
      </g>
      <g id="Group_5502" data-name="Group 5502" transform="translate(46.57)">
        <g id="Group_5500" data-name="Group 5500">
          <path id="Path_4260" data-name="Path 4260" d="M96.39,50.355a13.231,13.231,0,0,0,4.625-2.1,12.729,12.729,0,0,0-5.1-.48,6.114,6.114,0,0,0,1.589-3.6,13.334,13.334,0,0,0-4.59,2.265,5.965,5.965,0,0,0-2.378-2.984,6.252,6.252,0,0,0-1.4,3.678,12.966,12.966,0,0,0-4.95-.622A5.839,5.839,0,0,0,86.8,49.451a13.143,13.143,0,0,0-4.622,2.1,12.746,12.746,0,0,0,5.1.475,6.11,6.11,0,0,0-1.593,3.6,13.327,13.327,0,0,0,4.594-2.264,5.954,5.954,0,0,0,2.375,2.983,6.241,6.241,0,0,0,1.4-3.677A12.952,12.952,0,0,0,99,53.29,5.822,5.822,0,0,0,96.39,50.355Z" transform="translate(-82.177 -43.456)" fill="#8dc375"/>
          <path id="Path_4261" data-name="Path 4261" d="M101.892,55.724c.935,5.046-1.716,13.318-6.711,14.244S84.739,64.127,83.8,59.084a9.2,9.2,0,1,1,18.088-3.36Z" transform="translate(-81.837 -42.378)" fill="#f5815a"/>
        </g>
        <g id="Group_5501" data-name="Group 5501" transform="translate(4.862 8.811)">
          <path id="Path_4262" data-name="Path 4262" d="M88.925,52.088a1.071,1.071,0,1,1-.583-1.4A1.073,1.073,0,0,1,88.925,52.088Z" transform="translate(-85.954 -50.61)" fill="#f9b39a"/>
          <path id="Path_4263" data-name="Path 4263" d="M95.8,53.933a1.369,1.369,0,1,1-.745-1.79A1.369,1.369,0,0,1,95.8,53.933Z" transform="translate(-84.494 -50.278)" fill="#f9b39a"/>
          <path id="Path_4264" data-name="Path 4264" d="M93.418,58.586a1.428,1.428,0,1,1-.775-1.867A1.427,1.427,0,0,1,93.418,58.586Z" transform="translate(-85.072 -49.219)" fill="#f9b39a"/>
          <path id="Path_4265" data-name="Path 4265" d="M87.917,58.333a.931.931,0,1,1-.506-1.217A.93.93,0,0,1,87.917,58.333Z" transform="translate(-86.125 -49.118)" fill="#f9b39a"/>
          <path id="Path_4266" data-name="Path 4266" d="M93.694,63.647a1.363,1.363,0,1,1-.74-1.779A1.363,1.363,0,0,1,93.694,63.647Z" transform="translate(-84.979 -48.025)" fill="#f9b39a"/>
        </g>
      </g>
    </g>
  </g>
</svg>
