<svg xmlns="http://www.w3.org/2000/svg" xmlns:xlink="http://www.w3.org/1999/xlink" width="16" height="16" viewBox="0 0 16 16">
  <defs>
    <style>
      .cls-1, .cls-3 {
        fill: #707070;
      }

      .cls-1 {
        stroke: #707070;
      }

      .cls-2 {
        clip-path: url(#clip-path);
      }
    </style>
    <clipPath id="clip-path">
      <rect id="Rectangle_198" data-name="Rectangle 198" class="cls-1" width="16" height="16" transform="translate(103 382)"/>
    </clipPath>
  </defs>
  <g id="Mask_Group_21" data-name="Mask Group 21" class="cls-2" transform="translate(-103 -382)">
    <g id="gear" transform="translate(103 382)">
      <g id="Group_598" data-name="Group 598">
        <g id="Group_597" data-name="Group 597">
          <path id="Path_384" data-name="Path 384" class="cls-3" d="M8,4.267a3.733,3.733,0,1,0,0,7.467A.267.267,0,0,0,8,11.2a3.2,3.2,0,1,1,.985-.154.267.267,0,0,0,.164.508A3.734,3.734,0,0,0,8,4.267Z"/>
          <path id="Path_385" data-name="Path 385" class="cls-3" d="M8,6.933A1.067,1.067,0,1,0,9.067,8,1.068,1.068,0,0,0,8,6.933Zm0,1.6A.533.533,0,1,1,8.533,8,.534.534,0,0,1,8,8.533Z"/>
          <path id="Path_386" data-name="Path 386" class="cls-3" d="M15.524,6.406l-1.416-.314a6.372,6.372,0,0,0-.439-1.062L14.454,3.8a.53.53,0,0,0-.043-.7L12.9,1.589a.479.479,0,0,0-.345-.148.787.787,0,0,0-.364.112l-1.223.779a6.38,6.38,0,0,0-1.062-.44L9.59.463A.53.53,0,0,0,9.067,0H6.933a.564.564,0,0,0-.527.475L6.092,1.891a6.352,6.352,0,0,0-1.062.44L3.8,1.546a.719.719,0,0,0-.348-.11.485.485,0,0,0-.35.152L1.589,3.1a.563.563,0,0,0-.037.709L2.331,5.03a6.362,6.362,0,0,0-.44,1.062L.463,6.409A.53.53,0,0,0,0,6.933V9.067a.564.564,0,0,0,.475.527l1.416.315a6.386,6.386,0,0,0,.44,1.062L1.546,12.2a.529.529,0,0,0,.043.7L3.1,14.411a.48.48,0,0,0,.345.148.786.786,0,0,0,.364-.112l1.223-.779a6.346,6.346,0,0,0,1.062.44l.317,1.428A.53.53,0,0,0,6.933,16H9.067a.564.564,0,0,0,.527-.475l.314-1.416a6.382,6.382,0,0,0,1.062-.44l1.234.785a.722.722,0,0,0,.348.11.483.483,0,0,0,.35-.153L14.411,12.9a.563.563,0,0,0,.037-.709l-.779-1.223a6.371,6.371,0,0,0,.44-1.062l1.428-.318A.529.529,0,0,0,16,9.067V6.933A.564.564,0,0,0,15.524,6.406Zm-.058,2.647a.412.412,0,0,1-.058.02l-1.569.349a.267.267,0,0,0-.2.187,5.853,5.853,0,0,1-.514,1.243.266.266,0,0,0,.008.273l.85,1.334a.581.581,0,0,1,.036.081l-1.486,1.485A.424.424,0,0,1,12.48,14l-1.356-.863a.267.267,0,0,0-.273-.008,5.822,5.822,0,0,1-1.243.514.267.267,0,0,0-.187.2L9.08,15.384a.591.591,0,0,1-.032.083h-2.1a.4.4,0,0,1-.02-.057L6.578,13.84a.267.267,0,0,0-.187-.2,5.842,5.842,0,0,1-1.243-.514.267.267,0,0,0-.273.008l-1.333.85a.648.648,0,0,1-.081.036L1.976,12.535A.416.416,0,0,1,2,12.48l.862-1.355a.266.266,0,0,0,.008-.273,5.847,5.847,0,0,1-.514-1.243.267.267,0,0,0-.2-.187L.616,9.08a.65.65,0,0,1-.083-.032v-2.1a.429.429,0,0,1,.058-.02L2.16,6.578a.267.267,0,0,0,.2-.187,5.835,5.835,0,0,1,.515-1.243.267.267,0,0,0-.008-.273l-.85-1.333a.623.623,0,0,1-.036-.081L3.465,1.976A.424.424,0,0,1,3.52,2l1.356.863a.266.266,0,0,0,.273.008,5.831,5.831,0,0,1,1.242-.515.266.266,0,0,0,.187-.2L6.92.616A.66.66,0,0,1,6.952.533h2.1a.4.4,0,0,1,.02.057L9.422,2.16a.267.267,0,0,0,.187.2,5.856,5.856,0,0,1,1.243.514.267.267,0,0,0,.273-.008l1.333-.85a.648.648,0,0,1,.081-.036l1.485,1.486A.359.359,0,0,1,14,3.52l-.862,1.356a.266.266,0,0,0-.008.273,5.831,5.831,0,0,1,.514,1.243.267.267,0,0,0,.2.187l1.544.342a.579.579,0,0,1,.082.032Z"/>
        </g>
      </g>
    </g>
  </g>
</svg>
